<?xml version="1.0" encoding="UTF-8"?>
<svg xmlns="http://www.w3.org/2000/svg" xmlns:xlink="http://www.w3.org/1999/xlink" viewBox="0 0 50 50" version="1.1" fill="#333333" width="50px" height="50px">
<g id="surface1" fill="#333333">
<path style=" " d="M 49.957031 17.074219 C 49.847656 16.710938 49.542969 16.441406 49.167969 16.378906 L 40.296875 14.871094 L 49.683594 6.097656 C 49.960938 5.839844 50.066406 5.441406 49.957031 5.078125 C 49.847656 4.714844 49.542969 4.445313 49.167969 4.382813 L 23.425781 0.0078125 C 23.152344 -0.0351563 22.871094 0.03125 22.652344 0.199219 L 0.390625 17.238281 C 0.0898438 17.472656 -0.0546875 17.855469 0.0195313 18.230469 C 0.0976563 18.605469 0.378906 18.90625 0.75 19 L 10.480469 21.511719 L 0.390625 29.238281 C 0.0898438 29.46875 -0.0546875 29.855469 0.0195313 30.230469 C 0.0976563 30.605469 0.378906 30.902344 0.75 31 L 10.480469 33.511719 L 0.390625 41.234375 C 0.0898438 41.464844 -0.0546875 41.851563 0.0195313 42.226563 C 0.0976563 42.601563 0.378906 42.898438 0.75 42.996094 L 27.742188 49.964844 C 27.828125 49.984375 27.910156 49.996094 27.992188 49.996094 C 28.242188 49.996094 28.488281 49.902344 28.675781 49.726563 L 49.683594 30.089844 C 49.960938 29.832031 50.066406 29.4375 49.957031 29.070313 C 49.847656 28.710938 49.542969 28.4375 49.167969 28.375 L 40.296875 26.867188 L 49.683594 18.09375 C 49.960938 17.835938 50.066406 17.4375 49.957031 17.074219 Z M 46.84375 30.011719 L 27.714844 47.890625 L 3.238281 41.570313 L 12.703125 34.328125 C 12.777344 34.273438 12.824219 34.199219 12.878906 34.128906 L 27.742188 37.96875 C 27.828125 37.988281 27.910156 37.996094 27.992188 37.996094 C 28.242188 37.996094 28.488281 37.902344 28.675781 37.726563 L 38.457031 28.585938 Z M 27.710938 35.894531 L 3.238281 29.574219 L 12.941406 22.148438 L 27.742188 25.96875 C 27.828125 25.988281 27.910156 26 27.992188 26 C 28.242188 26 28.488281 25.90625 28.675781 25.730469 L 38.457031 16.585938 L 46.84375 18.011719 Z " fill="#333333"/>
</g>
</svg>
